<svg xmlns="http://www.w3.org/2000/svg" width="1300" height="550" viewBox="0 0 343.958 145.521" role="img"
  aria-labelledby="svg_title svg_desc">
  <title id="symbol_title">Multi-Etch®</title>
  <desc id="symbol_desc">The safer solution since 1993</desc>
  <defs>
   <filter id="a" color-interpolation-filters="sRGB">
     <feGaussianBlur result="result1" in="SourceAlpha" stdDeviation="2.51" />
     <feSpecularLighting result="result0" specularExponent="14.2" specularConstant="1.62" surfaceScale="3.254">
       <feDistantLight azimuth="186" elevation="59" />
     </feSpecularLighting>
     <feComposite result="result6" operator="in" in2="SourceAlpha" />
     <feGaussianBlur result="result11" stdDeviation="5.7" />
     <feDiffuseLighting surfaceScale="3.854" result="result3" diffuseConstant="4.43" in="result1">
       <feDistantLight elevation="28.664" azimuth="230" />
     </feDiffuseLighting>
     <feBlend result="result7" mode="multiply" in="result3" in2="SourceGraphic" />
     <feComposite in="result7" operator="in" in2="SourceAlpha" result="result91" />
     <feBlend result="result9" mode="lighten" in="result6" in2="result91" />
     <feComposite in="result11" in2="result9" />
   </filter>
   <filter height="1.4" width="1.4" y="-.2" x="-.2" id="b" color-interpolation-filters="sRGB">
     <feOffset dx="-.9" dy="-.7" in="SourceAlpha" result="result3" />
     <feGaussianBlur stdDeviation="5.884" in="result3" result="result1" />
     <feComposite operator="in" in2="result1" in="SourceGraphic" result="result2" />
     <feComposite operator="out" result="fbSourceGraphic" in="result2" in2="result2" />
     <feColorMatrix result="fbSourceGraphicAlpha" in="fbSourceGraphic" values="0 0 0 -1 0 0 0 0 -1 0 0 0 0 1 0 0 0 0 3 0" />
     <feGaussianBlur result="result0" in="fbSourceGraphicAlpha" stdDeviation="1.148" />
     <feSpecularLighting specularExponent="12.1" specularConstant="1.05" surfaceScale="1.84" lighting-color="#FFF" result="result1" in="result0">
       <feDistantLight azimuth="245" elevation="48.592" />
     </feSpecularLighting>
     <feComposite operator="in" result="result2" in="result1" in2="fbSourceGraphicAlpha" />
     <feComposite in="fbSourceGraphic" operator="arithmetic" k2="2" k3="2" in2="result2" result="result91" />
     <feBlend mode="multiply" in2="result91" />
   </filter>
 </defs>
 <path role="presentation" d="M169.17 116.282c-39.565-1.72-78.737-11.151-110.032-26.388-16.702-8.131-26.68-15.302-34.344-24.433-8.702-10.367-13.24-21.18-14.645-35.576-.759-7.77.806-22.563 1.846-28.894L12.158 0l9.487.183H31.75l2.56 3.5c6.384 8.727 13.025 14.21 24.2 19.982 20.257 10.461 52.152 18.35 86.835 21.478 29.896 2.696 43.148 2.844 62.794.7 41.811-4.562 70.457-12.226 90.765-24.284 9.176-5.448 17.584-13.807 20.025-19.909l.588-1.469h14.674l.257 3.424c.326 4.345-.427 21.28-.937 25.926-2.105 19.152-5.427 29.998-11.785 38.438-11.113 14.753-31.953 27.71-57.507 35.956-29.001 9.358-61.522 13.737-94.485 12.303z" fill="#e5e5e5" />
 <path role="presentation" d="M318.175 46.972c6.28-22.965-16.634-18.812-20.6-14.584-7.3 7.783 20.736-26.138 23.178-32.24l-.03-.396 6.13.241h7.337l-.176 3.503c.326 4.346-.08 20.332-.59 24.977-1.179 10.724-2.419 17.815-4.29 23.568-1.471 4.522-2.797 9.242-5.595 12.956-6.61 7.07-4.396 6.116-13.157 14.131M41.67 32c-22.966 4.423 7.134 52.248 3.949 50.024-14.314-9.99-12.53-8.122-20.592-16.988C15.92 55.023 12 43.882 10.595 29.485c-.759-7.77.097-22.803 1.659-29.027L12.158 0l9.487-.005 10.104.001 2.56 3.5c6.384 8.726 12.676 13.968 23.852 19.74 3.395 1.753 7.01 3.756 11.017 5.355" fill="#b5b5b5" />
 <path role="presentation" d="M172.684 67.704c-22.99-1.275-40.254-3.767-61.03-8.813C82.623 51.843 67 45.782 51.857 35.698c-6.468-4.307-10.007-7.227-15.88-13.106-4.698-4.703-5.429-5.565-7.998-9.435-2.67-4.022-6.284-11.33-6.285-12.71C21.695.3 23.957.19 26.722.2l5.027.018 2.293 3.224c2.998 4.213 8.823 10.25 12.845 13.313 9.65 7.347 27.29 14.805 46.598 19.702 22.753 5.77 35.321 7.608 69.321 10.136 18.565 1.38 33.552 1.057 49.565-1.071 2.329-.31 5.107-.651 6.174-.76 6.94-.7 24.523-3.593 30.97-5.095 1.608-.374 3.116-.67 3.351-.655.69.04-5.257 1.653-9.24 2.505-2.017.432-3.49.845-3.27.918.518.173 9.32-1.448 14.05-2.588 17.825-4.294 42.336-13.97 52.28-20.64 6.864-4.603 12.456-10.544 15.498-16.467l1.312-2.556L326.8.183l3.3-.003-.236 1.26c-.13.692-.321 1.526-.425 1.852-.16.499-.131.51.18.07.202-.287.47-1.12.593-1.852.136-.804.422-1.33.723-1.33.751 0 .619.766-.78 4.513-2.397 6.418-5.565 11.738-10.47 17.584-20.015 23.852-64.128 41.348-113.312 44.941-5.004.366-29.48.717-33.69.484z" fill="#b5b5b5" />
 <path role="presentation" d="M292.276 25.393c0-.083.833-.57 1.852-1.08a69.892 69.892 0 0 0 3.884-2.15c1.118-.673 2.2-1.167 2.406-1.099.205.068-.948.858-2.562 1.754-2.97 1.65-5.58 2.854-5.58 2.575z" fill="#b5b5b5" />
 <path role="presentation" d="M172.684 67.704c-22.996-1.275-40.28-3.771-61.03-8.814-26.009-6.32-41.484-11.963-54.859-20-8.48-5.095-13.737-9.212-20.818-16.3-4.698-4.702-5.429-5.564-7.998-9.434-2.67-4.022-6.284-11.33-6.285-12.71 0-.146 2.262-.256 5.027-.245l5.027.02 2.47 3.394c9.385 12.9 22.179 20.996 45.31 28.673 17.32 5.749 38.222 10.024 60.323 12.34 20.886 2.188 42.867 3.205 54.175 2.506 21.97-1.357 50.332-5.781 67.38-10.509 2.523-.7 4.828-1.295 5.122-1.324 4.296-1.075 8.758-2.52 12.606-4.058a52.02 52.02 0 0 0 2.91-1.184c5.511-2.184 11.413-5.39 16.25-8.082 9.318-5.288 18.304-14.107 20.66-20.274.575-2.698 1.087-2.73 2.394-2.73 3.855.581 8.36-1.643 10.139.763 0 .847-1.73 6.328-3.14 9.32-11.686 24.82-45.012 44.553-91.282 54.051-9.889 2.03-19.12 3.267-30.692 4.112-5.004.366-29.48.717-33.69.484z" fill="#d8d8d8" />
 <path role="presentation" d="M302.516 19.66c.005-.138 1.221-1.125 2.702-2.192 5.748-4.144 11.857-11.105 13.721-15.638.445-1.081 1.427-2.96 1.837-2.962.558 0-.006 1.489-.804 2.99-2.804 5.272-7.957 11.32-12.737 14.95-2.37 1.798-4.734 3.228-4.719 2.853z" fill="#b5b5b5" />
 <path role="presentation" d="M172.331 67.673c-27.483-1.064-60.47-7.304-89.076-16.852-16.522-5.514-30.386-13.164-41.87-23.102-6.209-5.374-10.141-9.646-13.405-14.562-2.67-4.022-6.284-11.33-6.285-12.71 0-.146 2.22-1.382 4.901-.99l4.955.725 3.255 4.321c1.79 2.377 4.537 5.592 6.104 7.144 3.248 3.215 11.184 9.349 12.097 9.349.183 0 1.905.86 3.826 1.912 9.508 5.21 22.608 10.121 36.3 13.612 16.682 4.253 34.592 7.39 48.33 8.467 2.328.182 8.282.657 13.23 1.054l13.758 1.106c6.254.502 22.82.495 29.28-.013 12.59-.99 30.945-3.362 42.657-5.514 2.603-.478 4.798-.804 4.878-.723.08.08-.7.318-1.734.529-5.863 1.195-6.505 1.37-5.165 1.406.716.02 3.587-.357 6.38-.838 20-3.443 49.179-14.133 62.169-22.779 6.86-4.566 14.51-13.131 16.346-18.209.409-1.13.527-2.622 2.741-2.622 1.972 0 2.278.666 2.12 1.208-.098.34-.706 2.539-.924 3.412-2.004 8.016-7.852 16.157-14.867 20.695-12.94 8.372-33.148 15.078-64.154 21.293-23.65 4.74-39.442 6.204-63.568 5.893-15.182-.196-19.64-.504-36.62-2.532-5.53-.66-13.15-1.537-16.934-1.948-19.881-2.164-40.531-5.846-47.376-8.448-1.451-.552-1.14-.115.369.516 5.289 2.215 17.967 5.936 26.324 7.727 15.558 3.333 22.238 4.074 54.197 6.016 27.29 1.657 30.715 1.942 40.393 3.36 6.953 1.018 13.14 1.438 15.51 1.052a9.668 9.668 0 0 0 3.851-1.55c2.571-1.733 3.572-1.85 6.264-.735 2.378.986 7.093 1.545 8.999 1.068.576-.145 1.913-1.22 3.123-2.511 1.89-2.017 2.354-2.319 4.328-2.816 2.334-.588 3.201-.48 4.723.591 1.141.804 3.04.853 4.105.107.434-.304 1.1-1.164 1.482-1.912.56-1.098 1.058-1.496 2.587-2.068 1.04-.39 2.884-.888 4.095-1.108 3.15-.57 6.183-1.55 12.018-3.88 5.136-2.05 8.826-3.29 9.07-3.046.072.072-1.503.728-3.5 1.459-8.226 3.01-9.383 3.96-4.348 3.574 4.188-.322 6.437-.847 8.48-1.978.97-.537 3.19-1.411 4.932-1.943 3.326-1.013 5.565-2.074 9.33-4.419 2.25-1.4 2.782-1.564 4.745-1.456 1.33.073 6.062-3.744 11.161-9.005 6.745-6.958 10.86-13.389 13.622-21.288 1.084-3.1 1.894-4.389 1.894-3.015 0 .842-2.376 7.062-3.712 9.715-12.2 24.24-46.231 43.862-91.742 52.898-18.545 3.682-41.166 5.233-63.649 4.363z" fill="#ababab" />
 <path role="presentation" d="M296.509 23.074c1.455-.792 2.839-1.598 3.075-1.792.236-.194.607-.294.824-.222.388.13-5.63 3.468-6.235 3.458-.17-.003.88-.652 2.336-1.444zm6.703-3.97c0-.07 1.071-.926 2.381-1.902 5.809-4.328 10.121-9.113 12.727-14.122.83-1.594 1.98-4.079 2.165-4.079.482 0 .128 1.277-1.1 3.54-2.059 3.796-3.624 5.915-6.82 9.233-3.785 3.931-9.353 8.295-9.353 7.33z" fill="#ababab" />
 <path role="presentation" d="M172.331 67.673c-27.483-1.064-60.47-7.304-89.076-16.852-16.522-5.514-30.386-13.164-41.87-23.102-6.209-5.374-10.141-9.646-13.405-14.562-2.67-4.022-6.284-11.33-6.285-12.71 0-.146 1.275-1.634 1.916-1.634 1.039 0 .5 1.549 1.222 3.034 2.273 4.68 6.35 9.876 12.909 16.453 22.249 22.313 50.645 33.606 97.9 38.934 4.332.488 8.525.617 20.172.622 8.087.002 14.511.113 14.276.244-1.028.575-12.452 4.25-16.632 5.352-5.318 1.4-5.33 1.39 2.822 2.157 10.217.961 18.537 1.284 30.3 1.177l11.605-.106.72-.965c.473-.634.773-1.689.873-3.07.14-1.937.038-2.312-1.285-4.723-.79-1.44-1.338-2.718-1.217-2.84.393-.392 2.326-.236 8.59.693 3.897.578 7.9.934 10.915.97 4.362.053 4.867-.008 5.997-.722 4.096-2.588 5.378-2.817 8.29-1.478 1.373.63 2.575.843 5.41.958l3.646.147 2.389-2.48c2.543-2.64 3.773-3.24 6.65-3.245 1.008-.001 1.864.257 2.562.774.65.48 1.52.762 2.288.74 1.404-.04 2.985-.93 2.985-1.68 0-.276.358-.919.797-1.428.682-.793 1.302-1.001 4.312-1.45 3.81-.566 4.917-.469 5.276.466.127.332.327 1.845.444 3.361.248 3.22-.459 3.156 6.104.55 10.228-4.062 18.447-8.316 26.893-13.918 6.548-4.343 9.113-6.383 13.816-10.987 7.3-7.147 12.087-14.438 15.04-22.908 1.03-2.957 1.754-4.093 1.754-2.755 0 .863-1.763 5.503-3.379 8.894-12.087 25.362-48.4 45.88-96.634 54.602-16.355 2.958-38.695 4.276-59.09 3.487z" fill="#979797" />
 <path role="presentation" d="M232.127 63.146c5.375-.944 14.438-3.034 14.934-3.443.502-.415 2.274-3.788 2.683-5.105.457-1.476-1.466-1-4.504 1.116-3.37 2.346-5.201 2.842-10.13 2.744l-3.72-.074-1.09 1.15c-1.017 1.075-2.935 3.9-2.935 4.324 0 .104.357.113.793.018.437-.094 2.223-.423 3.969-.73z" fill="#979797" />
 <path role="presentation" d="M169.535 67.527c-19.274-1-40.098-4.177-60.175-9.181-14.291-3.562-29.472-8.315-37.041-11.598C51.02 37.51 33.903 23.813 25.728 9.468 24.263 6.898 21.695 1.187 21.695.5c0-.174.036-.827.604-.827.932 0 1.612.789 2.972 3.34 2.426 4.554 5.678 8.575 12.281 15.186 6.803 6.811 9.892 9.4 16.775 14.06 15.128 10.243 32.345 16.78 56.62 21.501 11.48 2.232 27.291 4.278 33.063 4.278 3.861 1.18 9.47 6.214 3.45 6.414l1.059.292c2.617.722 18.37 1.91 30.515 2.303 9.697.313 29.039-.63 40.872-1.993 3.519-.406 3.68-.462 4.328-1.514.93-1.51 1.983-5.021 2.273-7.587.243-2.144.245-2.148 1.403-2.148.638 0 1.903.318 2.81.708 2.162.926 6.2 1.537 8.187 1.24 1.366-.206 1.892-.566 3.87-2.647 1.786-1.878 2.628-2.493 3.826-2.795 2.441-.615 3.785-.478 5.123.52 1.21.903 2.269.984 3.989.305.589-.232.63-.136.397.94-.143.66-.798 2.271-1.456 3.581-.856 1.706-1.055 2.381-.701 2.381.271 0 3.726-1.047 7.677-2.328 27.565-8.934 48.35-21.744 59.677-36.782 4.235-5.621 6.603-10.025 8.554-15.909.854-2.574 1.571-3.637 1.571-2.328 0 .863-1.763 5.503-3.379 8.894-12.09 25.37-48.333 45.847-96.634 54.6-17.186 3.115-41.244 4.414-61.886 3.343z" fill="#7b7b7b" />
 <path role="presentation" d="M133.173 54.635c-12.47-1.128-25.047-3.586-35.278-6.895-21.88-7.077-43.635-17.892-56.268-27.972-6.092-4.86-12.292-11.875-15.106-17.089L24.583-.757l3.948.167h2.929l3.248 4.796c1.947 2.874 6.788 8.447 10.8 11.801 1.746 1.46 2.88 2.543 2.518 2.407-.513-.194-.608-.121-.433.335.182.473.129.504-.282.163-.289-.24-.592-.281-.706-.097-.11.178.67 1.02 1.733 1.87 5.541 4.43 17.834 10.954 27.508 14.598 2.91 1.096 6.63 2.558 8.265 3.25 14.195 6.001 30.73 9.777 51.355 11.725 6.864.648 24.101 1.782 27.096 1.782 1.554 0 1.687.46.3 1.035-2.736 1.134-6.662 1.496-17.342 1.6-5.918.056-11.474.039-12.347-.04z" fill="#979797" />
 <path role="presentation" d="M235.88 62.225c3.298-.657 7.188-1.476 8.643-1.82l2.646-.624 1.537-2.992 1.536-2.991-.941-.114c-.67-.081-1.503.31-2.887 1.355-1.07.807-2.846 1.888-3.947 2.4-1.833.853-2.382.932-6.54.938l-4.538.007-1.106 1.3c-.608.716-1.466 1.943-1.906 2.727l-.8 1.426 1.153-.208c.634-.114 3.851-.746 7.15-1.403z" fill="#ababab" />
 <path role="presentation" d="M216.207 53.837c3.03-.89 5.788-1.675 6.129-1.744.34-.07.78-.226.976-.347.196-.121.79-.294 1.321-.383.53-.09 1.57-.4 2.31-.688.736.16 1.324-.825 2.073-.895 2.02-.134 2.902-.341 3.155-.74.363-.44.898-.17 1.452-.336 1.305-.4 1.457-.443 2.91-.828.583-.154 1.218-.403 1.412-.554.378-.294.555-.334 1.47-.334.323 0 .502-.086.397-.191-.106-.105-3.46.29-7.454.88-9.528 1.404-19.18 2.376-28.104 2.827-3.977.201-8.343.451-9.7.555-1.36.105-2.748.194-3.088.198-.406.877-2.53.247-3.12.522-.529.334-.711.387-1.575.457-1.14.091-.138.612 1.321.685 3.183.16 12.256 1.2 15.81 1.81 5.502.946 6.214.894 12.305-.894z" fill="#e5e5e5" />
 <path role="presentation" d="M137.935 54.597c-4.456-.16-13.659-1.15-19.05-2.05-16.695-2.786-34.929-9.052-53.798-18.489-19.043-9.524-31.204-19.06-37.99-30.35-.925-1.54-2.568-4.381-2.568-4.545 0-.163 1.418.107 2.442-.028l1.637-.214 2.812 4.636c7.936 13.081 24.242 24.39 46.604 32.749 2.295.858 5.482 2.123 7.083 2.812 9.675 4.166 23.692 7.884 37.37 9.913 4.825.716 16.951 1.95 19.155 1.95 2.323-.004 4.406 1.705 5.755 3.185.569.665.501.678-3.2.6a528.64 528.64 0 0 1-6.252-.169z" fill="#7b7b7b" />
 <path role="presentation" d="M169.535 67.527c-19.274-1-40.098-4.177-60.175-9.181-14.291-3.562-29.472-8.315-37.041-11.598C51.02 37.51 33.903 23.813 25.728 9.468c-1.465-2.57-4.274-9.06-4.274-9.747 0-.174-.018-.344.55-.344.932 0 .502 1.214 1.862 3.766 2.426 4.554 3.978 9.61 10.582 16.221 6.803 6.811 10.31 10.12 17.194 14.78 4.58 3.633 9.512 5.896 14.089 8.263 6.34 3.279 12.816 5.595 18.53 7.464 18.245 5.967 34.345 11.183 64.258 14.872 2.617.722 18.37 1.91 30.515 2.303 9.697.313 29.039-.63 40.872-1.993 16.984-2.808 21.85-3.86 34.049-7.016.271 0 3.726-1.047 7.677-2.328 27.565-8.934 48.35-21.744 59.677-36.782 4.235-5.621 7.247-12.225 9.198-18.11.854-2.573 1.544-2.509 1.544-1.2 0 .862-2.3 6.415-3.915 9.806-12.09 25.37-48.414 46.008-96.715 54.761-17.186 3.115-41.244 4.414-61.886 3.343z" fill="#272727" />
 <path role="presentation" d="M168.098 116.39a159.68 159.68 0 0 1-6.883-.337c-37.63-2.623-75.265-12.475-104.595-27.151-12.487-6.248-22.257-12.919-28.78-19.648C17.472 58.558 12.334 48.045 10.2 33.167c-.837-5.837-.84-17.443-.008-23.637 1.03-7.655 1.394-10.032 2.13-10.173.49-.095.841.151.689.643-.111.357-.824 3.48-1.257 6.003-.67 3.91-.787 5.911-.794 13.582-.016 17.533 2.097 27.333 7.973 36.973 8.92 14.635 27.354 27.887 53.258 38.289 17.599 7.067 39.458 13.12 60.63 16.79 8.748 1.517 12.586 2 23.988 3.026 23.919 2.15 41.42 1.705 64.206-1.632 22.353-3.274 37.611-7.092 52.74-13.199 12.537-5.06 26.02-12.716 34.925-19.832 4.456-3.56 11.772-11.102 14.226-14.665 7.589-11.019 11.391-38.724 10.95-64.05-.093-5.289.678-1.982.793-1.868.41.41-.116 17.971-.442 23.166-1.376 21.926-5.198 36.191-12.194 45.509-11.532 15.359-33.911 29.033-60.809 37.155-17.062 5.152-33.959 8.416-53.419 10.318-6.31.617-10.465 1.079-22.8 1.158-8.344.053-16.014-.263-16.887-.333z" fill="#272727" />
 <g stroke-width=".265">
   <g aria-label="Multi-Etch®" fill="#6c278b" filter="url(#a)" transform="translate(-13.413 .181)">
     <path role="presentation" d="M78.809 60.76 72.616 75.1q-.226.525-.102.91.159.4.658.782l-.242.56-6.856-2.96.242-.56q.585.087.986-.072.4-.16.627-.684l8.533-19.763q.227-.524.068-.925-.124-.386-.623-.767l.241-.56 8.99 3.882-.242.56q-.395-.047-.68.037-.25.1-.472.42-.226.524-.148 1.015l1.292 14.501 11.385-8.779.391-.329q.361-.26.502-.489.392-.91-.482-1.287l.242-.56 8.814 3.806-.241.56q-.585-.087-.986.072-.4.16-.627.684l-8.534 19.763q-.226.525-.102.91.159.401.658.783l-.242.56-7.275-3.142.241-.56q1.24.204 1.648-.74l6.193-14.342L80.552 80.27Zm50.438 16.158q-.639-.002-1.02.198-.383.2-.566.78l-3.303 10.505q-1.44 4.58-4.52 5.487-3.07.872-8.014-.682-4.906-1.543-6.961-4.026-2.055-2.483-.604-7.1l3.303-10.503q.308-.981-.704-1.7l.149-.472 7.05 2.217-.148.473q-1.24.01-1.55.99l-3.005 9.56q-.903 2.87-.033 4.422.918 1.527 3.898 2.464 2.944.926 4.582.163t2.53-3.598l3.005-9.56q.171-.545-.028-.927-.152-.407-.676-.771l.112-.484 6.652 2.091z" />
     <path role="presentation" d="M146.58 97.336q1.008.206 1.618-.875l.485.1-1.235 6.047-.485-.1q-.063-1.217-1.145-1.439l-17.47-3.567.106-.523q1.218-.062 1.432-1.108l3.408-16.686q.213-1.045-.883-1.58l.107-.523 7.204 1.472-.107.522q-.553.043-.957.31-.36.238-.474.798l-3.027 14.82z" />
     <path role="presentation" d="M160.84 101.24q-.13 1.02.992 1.549l-.063.491-7.293-.94.063-.49q1.215-.19 1.352-1.248l1.932-15.001-6.083-.784q-1.02-.132-1.55.991l-.49-.063.788-6.122.491.063q.111.63.375.97.263.342.868.42l17.117 2.205q1.058.136 1.516-1.034l.53.068-.79 6.122-.528-.068q-.152-1.21-1.21-1.347l-6.083-.784zm20.364-17.211-.032.494q-1.2.266-1.267 1.293l-1.094 16.995q-.036.57.208.93.284.324.88.553l-.031.494-7.338-.472.031-.494q1.199-.228 1.27-1.331l1.094-16.996q.068-1.064-1.091-1.444l.032-.495z" />
     <path role="presentation" d="m200.788 97.393-.61.001q-.154-.57-.46-.875-.305-.304-.876-.302l-7.392.018q-.495.001-.8.193-.304.191-.53.992l-.61.001-.016-6.324.61-.002q.154.571.46.875.305.304.876.303l7.392-.019q.495-.001.8-.192.304-.192.53-.992l.61-.002z" />
     <path role="presentation" d="m215.609 100.137 16.249-1.77q1.06-.115 1.231-1.36l.568-.061.714 6.552-.568.062q-.21-.514-.588-.818-.336-.27-.904-.208l-22.915 2.495-.066-.606q.552-.214.822-.55.27-.336.208-.904l-2.33-21.4q-.053-.492-.275-.775-.223-.282-1.043-.423l-.066-.606 22.499-2.449q.568-.062.842-.36.27-.336.355-.958l.606-.066.71 6.514-.606.066q-.214-.551-.55-.821-.336-.27-.904-.208l-15.832 1.723.651 5.984 10.265-1.117q.492-.054.774-.276.283-.222.424-1.042l.606-.066.692 6.363-.606.066q-.213-.552-.55-.822-.335-.27-.903-.208l-10.265 1.117z" />
     <path role="presentation" d="M252.047 97.01q.218 1.006 1.453 1.129l.104.484-7.187 1.555-.105-.485q1.082-.584.857-1.627l-3.198-14.784-5.995 1.297q-1.005.217-1.128 1.452l-.484.105-1.305-6.033.484-.105q.315.556.678.79.362.233.958.104l16.869-3.648q1.043-.226 1.083-1.482l.521-.113 1.305 6.033-.521.113q-.548-1.09-1.59-.865l-5.996 1.297z" />
     <path role="presentation" d="m285.394 85.878-.297.425q-.46-.165-.784-.053-1.847 2.007-3.998 3.835-2.127 1.78-4.576 2.625-5.044 1.737-9.408.298-4.34-1.487-6.052-6.458-1.688-4.899.816-8.743 2.528-3.893 7.57-5.63 2.666-.919 5.379-.765l5.283.598q.397-.137.658-.549l.495.152-1.465 5.34-.495-.152-.09-.493q-.41-1.188-3.385-1.17-2.976.017-4.921.687-2.882.993-4.434 3.623-1.529 2.581-.548 5.427.98 2.846 3.787 3.975 2.794 1.092 5.712.087 2.845-.98 4.24-2.428 1.396-1.448 1.776-1.981.416-.547.243-1.051l-.246-.48.297-.424z" />
     <path role="presentation" d="m292.426 75.634 3.392 6.309q.27.503.667.679.413.124 1.04.003l.235.437-6.477 3.481-.235-.436q.896-.828.373-1.801l-8.063-15.001q-.505-.94-1.69-.65l-.234-.435 6.477-3.482.234.436q-.878.862-.39 1.768l2.886 5.37 10.235-5.502-2.886-5.37q-.505-.94-1.69-.649l-.234-.436 6.477-3.481.234.436q-.397.387-.537.85-.124.414.146.917l8.063 15.001q.271.504.668.68.413.124 1.04.003l.235.436-6.477 3.481-.235-.436q.896-.828.373-1.8l-3.391-6.31z" />
     <path role="presentation" d="M308.374 49.07q1.808-1.133 3.594-.723 1.785.41 2.905 2.196 1.146 1.83.736 3.615-.41 1.786-2.218 2.919t-3.593.723q-1.786-.41-2.932-2.24-1.12-1.786-.71-3.572.41-1.785 2.218-2.918zm4.594 7.283q1.463-.917 1.801-2.387.338-1.47-.606-2.978-.918-1.463-2.388-1.8-1.47-.338-2.934.579-1.485.93-1.823 2.4-.337 1.471.58 2.935.944 1.506 2.414 1.844 1.47.338 2.956-.593zm-.914-5.333q.23.366.217.824-.013.458-.23.924.764.36 1.944.76l.046.12q-.272.38-.89.828l-.183-.005q-.862-.419-1.59-.862l-.667.418.893 1.329-1.034.647-.747-1.24-1.882-2.957 1.816-1.168q.71-.445 1.313-.343.603.101.994.725zm-1.844 2.175.694-.375q.212-.283.247-.514.022-.253-.14-.512-.378-.602-1.145-.152l-.417.291z" />
   </g>
   <g role="presentation" fill="#490d64" filter="url(#b)" transform="translate(-13.413 .181)">
     <path role="presentation" d="M78.809 60.76 72.616 75.1q-.226.525-.102.91.159.4.658.782l-.242.56-6.856-2.96.242-.56q.585.087.986-.072.4-.16.627-.684l8.533-19.763q.227-.524.068-.925-.124-.386-.623-.767l.241-.56 8.99 3.882-.242.56q-.395-.047-.68.037-.25.1-.472.42-.226.524-.148 1.015l1.292 14.501 11.385-8.779.391-.329q.361-.26.502-.489.392-.91-.482-1.287l.242-.56 8.814 3.806-.241.56q-.585-.087-.986.072-.4.16-.627.684l-8.534 19.763q-.226.525-.102.91.159.401.658.783l-.242.56-7.275-3.142.241-.56q1.24.204 1.648-.74l6.193-14.342L80.552 80.27Zm50.438 16.158q-.639-.002-1.02.198-.383.2-.566.78l-3.303 10.505q-1.44 4.58-4.52 5.487-3.07.872-8.014-.682-4.906-1.543-6.961-4.026-2.055-2.483-.604-7.1l3.303-10.503q.308-.981-.704-1.7l.149-.472 7.05 2.217-.148.473q-1.24.01-1.55.99l-3.005 9.56q-.903 2.87-.033 4.422.918 1.527 3.898 2.464 2.944.926 4.582.163t2.53-3.598l3.005-9.56q.171-.545-.028-.927-.152-.407-.676-.771l.112-.484 6.652 2.091z" />
     <path role="presentation" d="M146.58 97.336q1.008.206 1.618-.875l.485.1-1.235 6.047-.485-.1q-.063-1.217-1.145-1.439l-17.47-3.567.106-.523q1.218-.062 1.432-1.108l3.408-16.686q.213-1.045-.883-1.58l.107-.523 7.204 1.472-.107.522q-.553.043-.957.31-.36.238-.474.798l-3.027 14.82z" />
     <path role="presentation" d="M160.84 101.24q-.13 1.02.992 1.549l-.063.491-7.293-.94.063-.49q1.215-.19 1.352-1.248l1.932-15.001-6.083-.784q-1.02-.132-1.55.991l-.49-.063.788-6.122.491.063q.111.63.375.97.263.342.868.42l17.117 2.205q1.058.136 1.516-1.034l.53.068-.79 6.122-.528-.068q-.152-1.21-1.21-1.347l-6.083-.784zm20.364-17.211-.032.494q-1.2.266-1.267 1.293l-1.094 16.995q-.036.57.208.93.284.324.88.553l-.031.494-7.338-.472.031-.494q1.199-.228 1.27-1.331l1.094-16.996q.068-1.064-1.091-1.444l.032-.495z" />
     <path role="presentation" d="m200.788 97.393-.61.001q-.154-.57-.46-.875-.305-.304-.876-.302l-7.392.018q-.495.001-.8.193-.304.191-.53.992l-.61.001-.016-6.324.61-.002q.154.571.46.875.305.304.876.303l7.392-.019q.495-.001.8-.192.304-.192.53-.992l.61-.002z" />
     <path role="presentation" d="m215.609 100.137 16.249-1.77q1.06-.115 1.231-1.36l.568-.061.714 6.552-.568.062q-.21-.514-.588-.818-.336-.27-.904-.208l-22.915 2.495-.066-.606q.552-.214.822-.55.27-.336.208-.904l-2.33-21.4q-.053-.492-.275-.775-.223-.282-1.043-.423l-.066-.606 22.499-2.449q.568-.062.842-.36.27-.336.355-.958l.606-.066.71 6.514-.606.066q-.214-.551-.55-.821-.336-.27-.904-.208l-15.832 1.723.651 5.984 10.265-1.117q.492-.054.774-.276.283-.222.424-1.042l.606-.066.692 6.363-.606.066q-.213-.552-.55-.822-.335-.27-.903-.208l-10.265 1.117z" />
     <path role="presentation" d="M252.047 97.01q.218 1.006 1.453 1.129l.104.484-7.187 1.555-.105-.485q1.082-.584.857-1.627l-3.198-14.784-5.995 1.297q-1.005.217-1.128 1.452l-.484.105-1.305-6.033.484-.105q.315.556.678.79.362.233.958.104l16.869-3.648q1.043-.226 1.083-1.482l.521-.113 1.305 6.033-.521.113q-.548-1.09-1.59-.865l-5.996 1.297z" />
     <path role="presentation" d="m285.394 85.878-.297.425q-.46-.165-.784-.053-1.847 2.007-3.998 3.835-2.127 1.78-4.576 2.625-5.044 1.737-9.408.298-4.34-1.487-6.052-6.458-1.688-4.899.816-8.743 2.528-3.893 7.57-5.63 2.666-.919 5.379-.765l5.283.598q.397-.137.658-.549l.495.152-1.465 5.34-.495-.152-.09-.493q-.41-1.188-3.385-1.17-2.976.017-4.921.687-2.882.993-4.434 3.623-1.529 2.581-.548 5.427.98 2.846 3.787 3.975 2.794 1.092 5.712.087 2.845-.98 4.24-2.428 1.396-1.448 1.776-1.981.416-.547.243-1.051l-.246-.48.297-.424z" />
     <path role="presentation" d="m292.426 75.634 3.392 6.309q.27.503.667.679.413.124 1.04.003l.235.437-6.477 3.481-.235-.436q.896-.828.373-1.801l-8.063-15.001q-.505-.94-1.69-.65l-.234-.435 6.477-3.482.234.436q-.878.862-.39 1.768l2.886 5.37 10.235-5.502-2.886-5.37q-.505-.94-1.69-.649l-.234-.436 6.477-3.481.234.436q-.397.387-.537.85-.124.414.146.917l8.063 15.001q.271.504.668.68.413.124 1.04.003l.235.436-6.477 3.481-.235-.436q.896-.828.373-1.8l-3.391-6.31z" />
     <path role="presentation" d="M308.374 49.07q1.808-1.133 3.594-.723 1.785.41 2.905 2.196 1.146 1.83.736 3.615-.41 1.786-2.218 2.919t-3.593.723q-1.786-.41-2.932-2.24-1.12-1.786-.71-3.572.41-1.785 2.218-2.918zm4.594 7.283q1.463-.917 1.801-2.387.338-1.47-.606-2.978-.918-1.463-2.388-1.8-1.47-.338-2.934.579-1.485.93-1.823 2.4-.337 1.471.58 2.935.944 1.506 2.414 1.844 1.47.338 2.956-.593zm-.914-5.333q.23.366.217.824-.013.458-.23.924.764.36 1.944.76l.046.12q-.272.38-.89.828l-.183-.005q-.862-.419-1.59-.862l-.667.418.893 1.329-1.034.647-.747-1.24-1.882-2.957 1.816-1.168q.71-.445 1.313-.343.603.101.994.725zm-1.844 2.175.694-.375q.212-.283.247-.514.022-.253-.14-.512-.378-.602-1.145-.152l-.417.291z" />
   </g>
 </g>
 <g aria-label="The safer solution since 1993" fill="#e5e5e5" stroke-width=".265">
   <path role="presentation" d="M48.976 54.385q-.257.378.081.813l-.124.182-2.7-1.84.124-.183q.52.17.787-.222l3.787-5.554-2.252-1.536q-.378-.257-.814.081l-.182-.124 1.546-2.266.182.124q-.083.271-.047.46.035.188.26.34l6.337 4.322q.391.267.809-.104l.195.133-1.545 2.267-.196-.134q.184-.51-.208-.777l-2.252-1.536z" transform="translate(-12.808 43.459)" />
   <path role="presentation" d="m45.133 99.729-1.57 2.77q-.126.22-.098.411.051.185.245.392l-.108.192-2.843-1.612.108-.192q.524.141.766-.286l3.733-6.585q.233-.412-.156-.789l.108-.191 2.843 1.611-.108.192q-.532-.126-.758.271L45.96 98.27l4.493 2.547 1.336-2.357q.234-.412-.156-.789l.109-.191 2.843 1.611-.109.192q-.24-.058-.447 0-.185.05-.31.271l-3.733 6.585q-.125.221-.097.412.051.185.245.392l-.108.191-2.844-1.611.109-.192q.523.141.766-.286l1.57-2.77z" />
   <path role="presentation" d="m68.164 64.396 5.304 2.53q.412.196.791-.204l.199.094-1.181 2.476-.199-.095q.104-.532-.34-.743l-7.779-3.711.102-.214q.533.104.737-.324l3.259-6.832q.204-.428-.212-.776l.102-.214 7.55 3.602q.413.196.792-.204l.199.094-1.182 2.476-.198-.095q.073-.546-.34-.743l-5.074-2.42-.867 1.818 3.148 1.502q.245.117.418.068.18-.064.374-.272l.198.095-1.152 2.415-.214-.103q.111-.547-.317-.751l-3.148-1.502Z" transform="translate(-12.808 43.459)" />
   <path role="presentation" d="m78.3 112.55-.155-.166q.22-.587-.769-1.374-.988-.787-1.813-1.096-.777-.291-1.59-.343-.79-.062-1.09.495-.25.666 1.833 1.719t3.134 1.917q1.066.87.435 2.55-.541 1.443-2.097 1.637-1.556.194-3.141-.4-.983-.37-1.853-.895-.854-.52-1.562-1.237-.166-.135-.31-.28-.16-.059-.39.072l-.16-.15 1.685-1.792.176.157q-.243.65.848 1.403 1.108.76 2.06 1.116.808.303 1.62.355.813.052 1.045-.566.268-.714-1.833-1.72-2.085-.998-3.073-1.785-.983-.803-.329-2.547.541-1.443 2.018-1.667 1.483-.24 3.052.35.935.35 1.847 1.055.83.727 1.666 1.439.096.035.193.018.097-.018.2-.052l.154.167z" />
   <path role="presentation" d="m82.496 118.15-.678.672q-.349.368-.442.658-.057.178.047.353.125.165.303.275l-.067.21-3.241-1.039.067-.21q.322.05.519-.064.218-.126.504-.408l5.313-5.48q.106-.11.2-.239.111-.124.179-.334.062-.193-.031-.348-.072-.165-.255-.313l.067-.21 3.434 1.102-.067.21q-.198.007-.368.095-.17.087-.222.248-.062.194-.077.35.002.16.048.406l1.312 7.39q.063.359.142.669.1.298.493.513l-.067.21-3.596-1.153.067-.21q.188.025.375-.004.192-.045.275-.303.113-.354 0-.835-.096-.476-.187-.914zm3.27-3.433-2.28 2.399 2.805.9z" />
   <path role="presentation" d="M106.91 79.748q-.067.245.008.423.095.166.334.318l-.057.213-3.155-.853.058-.213q.542.007.67-.467l1.976-7.307q.124-.458-.348-.726l.058-.212 8.01 2.166q.44.12.746-.36l.212.058-.716 2.648-.213-.058q-.01-.283-.127-.437-.095-.167-.34-.233l-5.362-1.45-.526 1.945 3.367.911q.442.12.742-.343l.213.057-.699 2.583-.229-.062q-.003-.246-.115-.417-.09-.182-.336-.249l-3.367-.91zm11.443 2.048 5.73 1.299q.446.101.727-.373l.215.048-.607 2.675-.215-.048q-.016-.542-.494-.65l-8.406-1.907.052-.23q.542-.017.647-.48l1.674-7.381q.105-.463-.377-.71l.052-.232 8.158 1.85q.446.101.727-.373l.215.048-.607 2.676-.214-.05q-.05-.549-.495-.65l-5.483-1.243-.446 1.965 3.402.772q.264.06.423-.026.162-.102.304-.348l.215.049-.592 2.61-.23-.053q-.013-.559-.476-.663l-3.401-.772zm11.473 3.311q-.046.25.043.42.108.159.36.291l-.04.216-3.214-.592.04-.216q.54-.039.63-.521l1.371-7.444q.086-.467-.405-.695l.04-.216 5.961 1.099q1.782.328 2.716 1.051.938.707.64 2.322-.209 1.132-1.002 1.606-.777.477-2.041.52l1.29 2.716q.311.643.523.992.23.335.634.479l-.04.216-3.813-.703.04-.216q.262-.02.358-.072.098-.068.12-.184.03-.167.002-.293-.029-.126-.145-.336l-1.353-2.936-2.181-.402zm4.121-3.958q.75.138 1.233.037.503-.114.62-.746.123-.666-.293-.933-.416-.266-1.182-.407l-3.28-.604-.378 2.048z" transform="translate(-12.808 43.459)" />
   <path role="presentation" d="m141.75 126.894-.188-.126q.078-.622-1.066-1.159-1.143-.537-2.017-.648-.823-.104-1.626.033-.783.123-.946.734-.09.705 2.18 1.249 2.27.543 3.491 1.141 1.239.601 1.013 2.382-.193 1.528-1.662 2.076-1.47.548-3.15.336-1.04-.132-2.009-.442-.95-.308-1.804-.843-.194-.093-.368-.2-.168-.022-.361.159l-.191-.11 1.226-2.132.207.112q-.087.689 1.15 1.17 1.253.482 2.26.61.857.108 1.66-.029.802-.137.885-.793.096-.756-2.18-1.248-2.26-.491-3.403-1.029-1.142-.554-.908-2.402.194-1.528 1.579-2.087 1.387-.575 3.05-.365.991.125 2.04.6.976.516 1.954 1.015.101.013.191-.027t.183-.096l.19.126z" />
   <path role="presentation" d="M149.866 134.216q-2.294-.207-3.746-1.63-1.436-1.422-1.234-3.665.202-2.243 1.87-3.385 1.683-1.14 3.977-.933 2.277.205 3.713 1.627 1.452 1.423 1.25 3.666-.2 2.226-1.886 3.383-1.684 1.14-3.944.937zm.71-7.876q-1.349-.122-2.32.658-.972.78-1.093 2.129-.122 1.349.694 2.29.817.94 2.166 1.062 1.332.12 2.303-.66.99-.794 1.11-2.127.122-1.349-.694-2.29-.817-.94-2.166-1.062z" />
   <path role="presentation" d="M165.265 133.38q.456.027.655-.488l.22.012-.155 2.74-.22-.013q-.105-.532-.596-.56l-7.912-.445.013-.236q.532-.106.559-.58l.425-7.557q.027-.473-.49-.638l.013-.237 3.263.184-.013.237q-.24.054-.401.198-.143.127-.157.38l-.378 6.713z" />
   <path role="presentation" d="M191.663 82.973q-.273.079-.411.211-.139.133-.145.404l-.11 4.892q-.048 2.133-1.251 2.902-1.203.752-3.505.7-2.286-.052-3.47-.857-1.185-.806-1.136-2.956l.11-4.893q.01-.457-.51-.638l.005-.22 3.284.074-.005.22q-.529.158-.539.615l-.1 4.452q-.03 1.337.533 1.892.58.538 1.969.57 1.37.03 1.976-.498.604-.528.634-1.849l.1-4.452q.007-.254-.126-.392-.115-.155-.384-.246l-.012-.22 3.098.07zm8.085 8.105q.006.458.533.62l.003.22-3.268.042-.003-.22q.523-.159.517-.633l-.087-6.722-2.726.035q-.457.006-.62.533l-.22.003-.035-2.743.22-.003q.088.27.225.404.138.134.409.13l7.67-.1q.474-.005.602-.549l.237-.003.036 2.743-.237.003q-.142-.523-.617-.517l-2.726.035z" transform="translate(-12.808 43.459)" />
   <path role="presentation" d="m195.923 125.87.008.22q-.519.173-.501.63l.292 7.563q.01.254.134.401.14.13.414.205l.008.22-3.265.126-.008-.22q.519-.156.5-.646l-.292-7.564q-.018-.474-.548-.589l-.009-.22z" />
   <path role="presentation" d="M203.96 134.887q-2.298.152-3.954-1.027-1.64-1.18-1.79-3.428-.149-2.247 1.32-3.635 1.486-1.388 3.784-1.541 2.28-.152 3.92 1.029 1.657 1.18 1.807 3.427.148 2.23-1.337 3.636-1.486 1.388-3.75 1.539zm-.524-7.89q-1.352.09-2.19 1.01-.838.922-.749 2.273.09 1.352 1.043 2.154.953.802 2.305.712 1.334-.088 2.173-1.01.854-.939.765-2.274-.09-1.351-1.043-2.154-.953-.802-2.304-.712z" />
   <path role="presentation" d="M226.57 89.587q.05.455.606.566l.023.219-3.064.327-.024-.219q.508-.19.456-.679l-.804-7.526q-.05-.472-.587-.55l-.023-.22 3.536-.377.023.219q-.181.053-.275.131-.077.077-.061.228.014.135.074.214.058.062.246.229l5.455 4.356-.542-5.068q-.05-.472-.586-.55l-.024-.22 3.065-.327.023.22q-.524.191-.474.663l.804 7.526q.048.455.605.566l.024.219-3.3.352-.024-.219q.116-.03.229-.092.11-.08.094-.232-.025-.236-.301-.427-.26-.194-.334-.254l-5.397-4.294z" transform="translate(-12.808 43.459)" />
   <path role="presentation" d="m237.57 124.276-.218-.066q-.106-.618-1.356-.8-1.25-.18-2.119-.032-.818.14-1.546.504-.714.345-.692.977.12.701 2.45.561 2.329-.14 3.672.077 1.36.215 1.661 1.984.26 1.52-.987 2.47-1.246.952-2.915 1.237-1.035.177-2.051.161-1-.018-1.972-.281-.212-.033-.41-.085-.167.028-.3.257l-.214-.049.553-2.396.231.046q.117.684 1.44.785 1.34.098 2.34-.073.852-.146 1.58-.51.728-.365.617-1.016-.129-.751-2.45-.561-2.304.187-3.554.006-1.254-.199-1.568-2.035-.259-1.519.904-2.456 1.16-.954 2.812-1.236.985-.168 2.127-.02 1.084.21 2.165.404.1-.017.175-.082.075-.064.147-.145l.217.066z" />
   <path role="presentation" d="m256.386 76.582.044.216q-.484.254-.392.702l1.51 7.417q.05.25.196.375.16.106.443.134l.043.216-3.202.652-.044-.216q.487-.237.39-.718l-1.51-7.417q-.095-.465-.636-.493l-.044-.216z" transform="translate(-12.808 43.459)" />
   <path role="presentation" d="M250.155 127.205q.109.445.675.481l.052.214-2.994.729-.052-.214q.478-.256.362-.733l-1.79-7.355q-.113-.46-.655-.468l-.052-.214 3.455-.84.053.213q-.173.077-.256.167-.066.086-.03.234.032.132.101.202.065.054.274.195l5.982 3.598-1.205-4.953q-.112-.46-.654-.468l-.053-.214 2.995-.728.052.213q-.495.26-.382.72l1.79 7.355q.108.445.674.481l.052.214-3.224.785-.053-.214q.112-.045.215-.122.099-.094.063-.242-.056-.23-.355-.384-.282-.158-.364-.208l-5.917-3.544Zm20.366-6.07-.139.184q-.201-.08-.347-.036-.853.861-1.837 1.639-.974.756-2.075 1.092-2.268.69-4.183-.02-1.904-.73-2.585-2.965-.67-2.203.504-3.87 1.185-1.689 3.453-2.38 1.2-.364 2.401-.252l2.337.35q.179-.053.301-.232l.218.075-.737 2.348-.218-.075-.031-.22q-.163-.535-1.485-.575-1.322-.04-2.197.226-1.296.394-2.028 1.537-.72 1.122-.33 2.402.389 1.28 1.617 1.827 1.224.53 2.536.13 1.28-.389 1.923-1.01.643-.62.82-.851.194-.236.125-.463l-.102-.217.14-.184z" />
   <path role="presentation" d="m287.805 75.622 5.507-2.05q.429-.159.404-.71l.207-.076.957 2.57-.207.077q-.31-.444-.77-.273l-8.078 3.006-.083-.222q.445-.31.28-.754l-2.64-7.094q-.166-.445-.705-.389l-.083-.222 7.84-2.917q.429-.16.404-.71l.207-.078.956 2.571-.206.077q-.342-.433-.77-.273l-5.269 1.96.703 1.889 3.269-1.217q.254-.094.34-.253.08-.174.064-.457l.206-.077.934 2.508-.223.082q-.315-.46-.76-.295l-3.27 1.217zm13.691-13.929.094.199q-.409.362-.213.775l3.243 6.84q.11.229.282.316.18.064.461.025l.095.199-2.953 1.4-.095-.199q.417-.347.206-.791l-3.243-6.84q-.203-.428-.736-.325l-.094-.199z" transform="translate(-12.808 43.459)" />
   <path role="presentation" d="m294.832 109.09.22-.01q.037.125.08.231.265.482 1.192.293.933-.209 1.55-.55 1.236-.681 1.552-1.774.321-1.112-.347-2.323-.278.782-.77 1.408-.48.62-1.16.995-1.445.797-2.87.697-1.432-.112-2.19-1.484-.763-1.383-.04-2.733.734-1.356 2.18-2.153 1.89-1.043 3.565-.55 1.68.476 2.737 2.39 1.07 1.94.592 3.848-.473 1.89-2.413 2.96-.754.415-1.673.648-.858.168-1.724.323-.098.054-.145.145-.054.078-.093.212l-.215-.01zm.122-6.03q-.754.415-1.174 1.114-.42.7-.031 1.404.388.704 1.21.734.816.017 1.57-.399.766-.422 1.173-1.115.42-.699.025-1.415-.389-.705-1.204-.722-.816-.017-1.57.398z" />
   <path role="presentation" d="m304.822 103.334.219-.03q.048.12.1.222.31.455 1.215.18.909-.296 1.492-.693 1.166-.795 1.377-1.913.216-1.137-.563-2.28-.203.805-.635 1.474-.42.662-1.06 1.1-1.365.93-2.793.964-1.436.022-2.319-1.272-.89-1.306-.298-2.717.604-1.419 1.968-2.349 1.784-1.216 3.498-.882 1.718.315 2.95 2.123 1.247 1.83.95 3.775-.293 1.924-2.123 3.172-.712.485-1.605.804-.838.247-1.685.483-.094.063-.132.158-.046.082-.072.22l-.215.01zm-.446-6.016q-.711.485-1.064 1.22-.352.736.101 1.401.453.665 1.275.617.813-.06 1.524-.544.723-.493 1.064-1.22.352-.736-.109-1.412-.453-.665-1.266-.606-.814.06-1.525.544z" />
   <path role="presentation" d="M332.602 48.295q1.009 1.18.488 2.59-.52 1.411-1.797 2.502-.912.78-1.897 1.213-.978.354-1.946.698-.118.1-.167.217-.038.107-.065.315l-.214.054-.814-2.646.205-.064.098.158q.468.547 1.697.052 1.221-.505 1.908-1.091.729-.624 1.091-1.286.373-.671-.078-1.307-.577-.676-1.266-.44-.69.237-1.505.933-.3.257-.44.506-.148.239-.01.51l-.171.147-1.504-1.76.172-.146q.276.172.512.1.238-.091.549-.357.686-.587 1.045-1.21.36-.622-.118-1.18-.449-.525-1.084-.335-.636.19-1.247.713-.6.514-1.227 1.475-.635.952-.259 1.391.074.086.285.203l-.037.217-2.467-.453.037-.218q.02.002.153-.038.135-.06.232-.142.296-.977.832-1.936.526-.97 1.416-1.73 1.127-.964 2.46-1.25 1.325-.296 2.205.734.44.514.535 1.082.098.549-.134 1.21.76-.26 1.391-.13.641.12 1.136.7z" transform="translate(-12.808 43.459)" />
 </g>
</svg>
